<svg width="66" height="66" viewBox="0 0 66 66" fill="none" xmlns="http://www.w3.org/2000/svg">
<g id="Business-Chat-4--Streamline-Cyber-Duotone">
<g id="Group 1000007176">
<path id="Vector" d="M21.0181 23.3752L12.0846 27.8419L11.9824 27.8144L12.0453 27.8616L19.0538 33.1966H32.8037V29.268L21.0181 23.3752Z" fill="#FFEDD4"/>
<path id="Vector_2" d="M32.8037 44.9822L21.0181 50.875L9.23242 44.9822V29.268L21.0181 23.3752L32.8037 29.268V44.9822Z" stroke="#222222" stroke-width="1.5"/>
<path id="Vector_3" d="M11.9824 27.8149L19.0538 33.1971H32.8037" stroke="#222222" stroke-width="1.5" stroke-miterlimit="10"/>
<path id="Vector_4" d="M40.6605 64.6252V58.7324L21.0177 54.8038L1.375 58.7324V64.6252" stroke="#222222" stroke-width="1.5" stroke-linecap="round"/>
</g>
<g id="Group 1000007177">
<path id="Vector_5" d="M35.1914 21.9139H41.1211V27.8436L48.5332 21.9139H61.875V15.9842H35.1914V21.9139Z" fill="#FFEDD4"/>
<path id="Vector_6" d="M54.4629 10.0549H42.6035" stroke="#222222" stroke-width="1.61719" stroke-linecap="round"/>
<path id="Vector_7" d="M51.127 15.9842H42.2324" stroke="#222222" stroke-width="1.61719" stroke-linecap="round"/>
<path id="Vector_8" d="M35.1914 21.9141H41.1211V27.8438L48.5332 21.9141H61.875V4.125H35.1914V21.9141Z" stroke="#222222" stroke-width="1.61719" stroke-linecap="round"/>
</g>
</g>
</svg>
