<svg width="65" height="65" viewBox="0 0 65 65" fill="none" xmlns="http://www.w3.org/2000/svg">
<g id="Business-Chat-4--Streamline-Cyber-Duotone">
<path id="Vector" d="M14.8959 35.208L8.73716 38.2874L8.66675 38.2684L8.71008 38.3009L13.5417 41.9788H23.0209V39.2705L14.8959 35.208Z" fill="#FFEDD4"/>
<path id="Vector_2" d="M50.1042 2.70801L43.9454 5.78738L43.875 5.76842L43.9183 5.80092L48.75 9.47884H58.2292V6.77051L50.1042 2.70801Z" fill="#FFEDD4"/>
<path id="Vector_3" d="M33.8542 55.5212H39.2709V60.9378L46.0417 55.5212H58.2292V50.1045H33.8542V55.5212Z" fill="#FFEDD4"/>
<path id="Vector_4" d="M31.1458 20.3122H25.7291V25.7288L18.9583 20.3122H6.77075V14.8955H31.1458V20.3122Z" fill="#FFEDD4"/>
<path id="Vector_5" d="M23.0208 50.1038L14.8958 54.1663L6.77075 50.1038V39.2705L14.8958 35.208L23.0208 39.2705V50.1038Z" stroke="#222222" stroke-width="1.5"/>
<path id="Vector_6" d="M8.66675 38.2686L13.5417 41.979H23.0209" stroke="#222222" stroke-width="1.5" stroke-miterlimit="10"/>
<path id="Vector_7" d="M28.4376 63.6458V59.5833L14.8959 56.875L1.35425 59.5833V63.6458" stroke="#222222" stroke-width="1.5" stroke-linecap="round"/>
<path id="Vector_8" d="M39.2708 44.6875H50.1041" stroke="#222222" stroke-width="1.5" stroke-linecap="round"/>
<path id="Vector_9" d="M39.2708 50.1045H47.3958" stroke="#222222" stroke-width="1.5" stroke-linecap="round"/>
<path id="Vector_10" d="M12.1875 9.47949H23.0208" stroke="#222222" stroke-width="1.5" stroke-linecap="round"/>
<path id="Vector_11" d="M12.1875 14.8955H20.3125" stroke="#222222" stroke-width="1.5" stroke-linecap="round"/>
<path id="Vector_12" d="M58.2292 17.6038L50.1042 21.6663L41.9792 17.6038V6.77051L50.1042 2.70801L58.2292 6.77051V17.6038Z" stroke="#222222" stroke-width="1.5"/>
<path id="Vector_13" d="M43.875 5.76855L48.75 9.47897H58.2292" stroke="#222222" stroke-width="1.5" stroke-miterlimit="10"/>
<path id="Vector_14" d="M63.6458 31.1458V27.0833L50.1042 24.375L36.5625 27.0833V31.1458" stroke="#222222" stroke-width="1.5" stroke-linecap="round"/>
<path id="Vector_15" d="M31.1458 20.3125H25.7291V25.7292L18.9583 20.3125H6.77075V4.0625H31.1458V20.3125Z" stroke="#222222" stroke-width="1.5" stroke-linecap="round"/>
<path id="Vector_16" d="M33.8542 55.5205H39.2709V60.9372L46.0417 55.5205H58.2292V39.2705H33.8542V55.5205Z" stroke="#222222" stroke-width="1.5" stroke-linecap="round"/>
</g>
</svg>
