<svg width="64" height="64" viewBox="0 0 64 64" fill="none" xmlns="http://www.w3.org/2000/svg">
<g id="Cog--Streamline-Cyber-Duotone">
<path id="Vector" d="M52.4523 27.3613L59.2696 20.0749L55.0619 13.0586L49.2344 14.6237L33.9744 29.8839L36.0904 31.9999L32 36.0903L29.884 33.9743L14.373 49.4826L18.6978 48.3234L25.0272 51.9095L27.9096 61.9965H36.0904L38.9728 51.9095L45.3021 48.3234L55.0619 50.9413L59.2696 43.925L52.4523 36.6386V27.3613Z" fill="#FFEDD4"/>
<path id="Vector_2" d="M52.4523 27.3618L59.2696 20.0754L55.0592 13.0591L45.3021 15.677L38.9728 12.0908L36.0904 2.00391H27.9096L25.0273 12.0908L18.6979 15.677L8.9382 13.0591L4.73047 20.0754L11.5478 27.3618V36.6391L4.73047 43.9255L8.9382 50.9418L18.6979 48.3239L25.0273 51.9101L27.9096 61.997H36.0904L38.9728 51.9101L45.3021 48.3239L55.0592 50.9418L59.2696 43.9255L52.4523 36.6391V27.3618Z" stroke="#222222" stroke-width="1.5" stroke-linecap="round" stroke-linejoin="round"/>
<path id="Vector_3" d="M46 38.3998L32 48L18 38.3998V25.5999L32 16L46 25.5999V38.3998Z" stroke="#222222" stroke-width="1.5" stroke-linecap="round" stroke-linejoin="round"/>
<path id="Vector_4" d="M32 27L27 32.0002L32 37L37 32.0002L32 27Z" stroke="#222222" stroke-width="1.5" stroke-linecap="round" stroke-linejoin="round"/>
</g>
</svg>
