<svg width="64" height="64" viewBox="0 0 64 64" fill="none" xmlns="http://www.w3.org/2000/svg">
<g id="Globe-1--Streamline-Cyber-Duotone" clip-path="url(#clip0_215_43139)">
<path id="Vector" d="M47.9993 22.6641H39.9993L34.666 31.3307L39.9993 41.3307H51.9993V54.9733L54.1487 54.1467L62.666 31.9973L60.1007 25.3307H50.666L47.9993 22.6641Z" fill="#FFEDD4"/>
<path id="Vector_2" d="M54.4607 10.6643L54.1487 9.85099L43.7407 5.84833L41.3327 10.6643H38.666V17.331H43.9993L46.666 13.331V10.6643H54.4607Z" fill="#FFEDD4"/>
<path id="Vector_3" d="M1.33398 31.9997L9.85132 54.1331L25.246 60.0531L25.334 59.9997L30.6673 50.6664L24.0007 41.3331H13.334L9.33398 35.9997V29.3331L14.6673 25.3332V30.6664L17.334 31.9997L22.6673 29.3331V21.3332L16.0007 18.6665L20.2673 5.83984L9.84598 9.83984L1.33398 31.9997Z" fill="#FFEDD4"/>
<path id="Vector_4" d="M51.9993 54.9733V41.3307H39.9993L34.666 31.3307L39.9993 22.6641H47.9993L50.666 25.3307H60.1007" stroke="#222222" stroke-width="1.5" stroke-linecap="round"/>
<path id="Vector_5" d="M32.0006 62.664L54.15 54.1467L62.6673 31.9974L54.15 9.85074L32.0006 1.33075L9.85132 9.85074L1.33398 31.9974L9.85132 54.1467L32.0006 62.664Z" stroke="#222222" stroke-width="1.5" stroke-linecap="round"/>
<path id="Vector_6" d="M54.4607 10.6643H46.666V13.331L43.9993 17.331H38.666V10.6643H41.3327L43.7407 5.84833" stroke="#222222" stroke-width="1.5" stroke-linecap="round"/>
<path id="Vector_7" d="M20.2753 5.83984L16.0007 18.6638L22.6673 21.3305V29.3304L17.334 31.9971L14.6673 30.6637V25.3305L9.33398 29.3304V35.9971L13.334 41.3304H24.0007L30.6673 50.6637L25.334 59.9971" stroke="#222222" stroke-width="1.5" stroke-linecap="round"/>
</g>
<defs>
<clipPath id="clip0_215_43139">
<rect width="64" height="64" fill="white"/>
</clipPath>
</defs>
</svg>
