<svg width="89" height="30" viewBox="0 0 89 30" fill="none" xmlns="http://www.w3.org/2000/svg">
<g id="logo-header 4" clip-path="url(#clip0_375_45128)">
<g id="Symbols">
<g id="Logo-/-Logo_Blue">
<g id="Group-10">
<path id="Fill-1" fill-rule="evenodd" clip-rule="evenodd" d="M58.1899 6.77472L55.9073 17.7254H60.1096L62.3922 6.77472H58.1899ZM52.6476 8.68397V8.64727L53.0815 6.77472H49.024L46.7417 17.7254H50.9447L51.9224 13.1504C52.3569 11.1329 53.226 10.3403 54.5663 10.3403C55.2193 10.3403 55.6182 10.377 56.3065 10.6296L57.1027 6.88204C56.7764 6.73772 56.4147 6.70287 55.9073 6.70287C54.5663 6.70287 53.2989 7.63914 52.6476 8.68397ZM31.9609 8.32315L32.3958 6.77472H28.3377L26.0563 17.7254H30.2583L31.4901 11.9255C31.7435 10.7733 32.1787 9.83643 33.518 9.83643C34.2076 9.83643 34.7141 10.196 34.7141 10.8813C34.7141 11.3136 34.4967 12.0692 34.3881 12.718L33.3012 17.7254H37.431L38.7722 11.5295C38.953 10.7363 39.0616 9.94437 39.0616 9.43984C39.0616 7.1707 37.2501 6.48669 35.801 6.48669C33.9898 6.48669 32.8307 7.35111 31.9609 8.32315ZM62.1391 12.9342C62.1754 15.2749 63.262 17.9758 68.1154 17.9758C70.9784 17.9758 73.6959 16.3916 74.3832 13.2938H70.219C69.8912 14.2313 69.1672 15.0963 68.0794 15.0963C66.8846 15.0963 66.5229 14.3383 66.6315 12.7905C66.6675 11.9616 67.1383 9.33098 69.0946 9.33098C70.4721 9.33098 70.5795 10.6296 70.5435 11.1329H74.7105C74.7465 7.99965 72.5001 6.48669 69.2032 6.48669C64.8926 6.48669 62.1391 9.69272 62.1391 12.9342ZM79.5633 13.114C79.5633 11.3858 80.5431 9.33098 82.0283 9.33098C83.26 9.33098 83.6946 10.1605 83.6946 11.2772C83.6946 13.5828 82.5711 15.0239 81.1939 15.0239C80.2171 15.0239 79.5633 14.4826 79.5633 13.114ZM75.1444 13.4375C75.1444 15.4195 75.9419 17.9758 79.1656 17.9758C80.6154 17.9758 82.0649 17.2205 82.6797 16.3916V16.4286C82.6797 16.86 82.716 17.3649 82.8974 17.7254H87.101C86.8829 17.1481 86.8829 16.1751 87.136 15.0239C87.3547 14.0509 88.8755 6.77472 88.8755 6.77472H84.6729L84.3469 8.17944C83.8394 7.1707 82.7519 6.48669 81.0859 6.48669C77.2093 6.48669 75.1444 10.2324 75.1444 13.4375ZM20.7662 8.82799C21.9619 8.82799 22.5416 9.51293 22.3242 10.8103H18.5927C18.8824 9.69303 19.6433 8.82799 20.7662 8.82799ZM13.9924 12.9712C13.9924 15.888 15.7307 17.9773 19.7885 17.9773C23.9545 17.9773 25.3677 15.06 25.6577 14.3389H21.6002C21.3099 14.9166 20.8753 15.3122 19.9696 15.3122C19.1724 15.3122 18.7376 14.9166 18.5204 14.5197C18.3033 14.0873 18.1947 13.5834 18.2313 12.9712H26.092C26.2374 12.4309 26.3091 11.8182 26.3091 11.0981C26.3091 7.78409 23.8453 6.27112 20.9113 6.27112C17.7236 6.27112 13.9924 8.2513 13.9924 12.9712ZM0.950195 12.7177C0.950195 15.0954 1.96418 17.9773 6.89111 17.9773C9.78913 17.9773 12.5063 16.2121 13.1586 13.1143H8.99228C8.66658 14.0518 7.94231 15.0954 6.89111 15.0954C5.62339 15.0954 5.29739 14.1591 5.40596 12.611C5.47792 11.8185 5.94939 9.00778 7.86942 9.00778C9.24569 9.00778 9.35426 10.4131 9.35426 10.9534H13.5209C13.5572 7.82017 11.2749 6.12679 8.01396 6.12679C3.66677 6.12679 0.950195 9.51324 0.950195 12.7177ZM43.5903 3.49653C42.2127 3.5323 41.7428 3.5323 41.7428 3.5323L41.0185 6.77472H39.0616C39.0616 6.77472 39.6413 7.13461 39.9673 7.78347C40.2207 8.39501 40.3296 9.22427 40.1485 10.196C39.8219 12.0328 39.4233 13.7986 39.4233 13.7986C38.735 16.9325 40.0027 17.94 42.9742 17.94C43.7348 17.94 44.8217 17.8688 45.5822 17.7254L46.198 14.771C45.51 14.8795 44.9309 14.9156 44.5326 14.9156C43.9163 14.9156 43.5533 14.5193 43.5903 14.0509C43.5903 13.6549 43.6982 13.2229 43.7711 12.8617L44.4954 9.54778H47.3211L47.9731 6.77472H45.0031L45.764 3.42467C45.764 3.42467 45.112 3.46075 43.5903 3.49653ZM60.1819 1.87624C58.8782 2.70458 58.3344 4.21724 58.987 5.18959C59.6394 6.16257 61.1971 6.23411 62.5368 5.40578C63.8417 4.54197 64.3492 3.06447 63.7325 2.09242C63.3817 1.54996 62.7582 1.27734 62.0523 1.27734C61.448 1.27734 60.7839 1.4778 60.1819 1.87624Z" fill="#132063"/>
<path id="Fill-4" fill-rule="evenodd" clip-rule="evenodd" d="M2.68 25.5781V27.9166C2.68 28.0153 2.7197 28.0449 2.79911 28.0547C3.0274 28.0745 3.22592 28.0745 3.52369 28.0745C4.47626 28.0745 5.26009 27.8672 5.26009 26.8409V26.7327C5.26009 25.8544 4.77403 25.5781 3.54354 25.5781H2.68ZM2.68 22.9142V25.0159H3.3745C4.31745 25.0159 4.86337 24.7691 4.86337 23.8119V23.7132C4.86337 22.9635 4.42663 22.7069 3.52369 22.7069C3.23584 22.7069 2.99762 22.7365 2.79911 22.776C2.70978 22.7957 2.68 22.8254 2.68 22.9142ZM5.58764 23.674V23.8218C5.58764 24.5619 5.25047 25.0159 4.65493 25.203V25.2228C5.46884 25.3415 5.98467 25.8346 5.98467 26.6932V26.8314C5.98467 28.1436 5.00233 28.6271 3.4936 28.6271C3.03733 28.6271 2.63037 28.6172 2.22341 28.5876C2.0646 28.5778 1.99512 28.5186 1.99512 28.3409V22.5589C1.99512 22.3813 2.02489 22.3319 2.19363 22.2925C2.56089 22.2135 3.03733 22.1543 3.51377 22.1543C4.82366 22.1543 5.58764 22.5984 5.58764 23.674Z" fill="#132063"/>
<path id="Fill-6" fill-rule="evenodd" clip-rule="evenodd" d="M10.451 23.7891C10.5304 23.7891 10.5601 23.8384 10.5601 23.9174V27.2326C10.5601 27.7161 10.4113 28.1105 10.1234 28.3573C9.83555 28.604 9.45868 28.7128 8.7738 28.7128C8.1187 28.7128 7.71205 28.5941 7.4242 28.3573C7.1165 28.1007 6.97754 27.726 6.97754 27.2326V23.947C6.97754 23.8581 7.03709 23.7891 7.1165 23.7891H7.48376C7.58301 23.7891 7.62272 23.8581 7.62272 23.9272V27.1536C7.62272 27.5483 7.69189 27.7556 7.88048 27.923C8.0793 28.1007 8.34699 28.1599 8.7738 28.1599C9.22046 28.1599 9.47822 28.0812 9.68667 27.8839C9.8554 27.726 9.91496 27.5483 9.91496 27.1536V23.9174C9.91496 23.8384 9.96459 23.7891 10.0341 23.7891H10.451Z" fill="#132063"/>
<path id="Fill-9" fill-rule="evenodd" clip-rule="evenodd" d="M11.6719 28.4769C11.5727 28.4374 11.533 28.398 11.5528 28.3088L11.6322 28.023C11.662 27.9144 11.7216 27.8848 11.8208 27.9243C12.2079 28.0723 12.6046 28.1611 13.0215 28.1611C13.498 28.1611 13.7064 28.092 13.8652 27.9638C14.024 27.8355 14.1134 27.6282 14.1134 27.3322V27.273C14.1134 26.9279 14.0538 26.7404 13.8454 26.6121C13.6965 26.5233 13.4781 26.4739 13.1506 26.4048L12.8726 26.3555C12.5454 26.2963 12.2873 26.2173 12.0987 26.1088C11.7315 25.9015 11.5925 25.5466 11.5925 25.0828V24.9838C11.5925 24.1058 12.1384 23.7012 13.1803 23.7012C13.6071 23.7012 13.9744 23.7505 14.2917 23.8393C14.4108 23.8692 14.4605 23.9281 14.4409 24.017L14.3811 24.2735C14.3516 24.392 14.2917 24.4413 14.1528 24.4018C13.8652 24.3229 13.488 24.2538 13.1704 24.2538C12.7436 24.2538 12.5156 24.3328 12.3866 24.4512C12.2774 24.5499 12.1881 24.7371 12.1881 24.964V25.0334C12.1881 25.2404 12.2278 25.3982 12.3466 25.517C12.4756 25.645 12.6546 25.7239 13.1208 25.8127L13.3789 25.8621C13.8652 25.9608 14.2619 26.089 14.4605 26.3358C14.6093 26.5331 14.7086 26.8193 14.7086 27.2042V27.3026C14.7086 27.648 14.6093 28.0032 14.431 28.2203C14.1627 28.5556 13.6965 28.7138 13.0215 28.7138C12.5156 28.7138 11.9796 28.6052 11.6719 28.4769Z" fill="#132063"/>
<path id="Fill-11" fill-rule="evenodd" clip-rule="evenodd" d="M16.496 28.5472C16.496 28.5966 16.4663 28.6262 16.4068 28.6262H15.9312C15.8714 28.6262 15.8515 28.6065 15.8515 28.5472V23.8998C15.8515 23.831 15.8813 23.7915 15.9705 23.7915H16.377C16.4563 23.7915 16.496 23.831 16.496 23.8998V28.5472ZM16.6348 22.5484C16.6348 22.8738 16.4563 23.0221 16.1986 23.0221H16.1589C15.8317 23.0221 15.7031 22.8738 15.7031 22.5484V22.4889C15.7031 22.1537 15.9011 22.0254 16.1589 22.0254H16.1986C16.4563 22.0254 16.6348 22.1537 16.6348 22.4889V22.5484Z" fill="#132063"/>
<path id="Fill-13" fill-rule="evenodd" clip-rule="evenodd" d="M21.4399 28.6249H21.162C21.0031 28.6249 20.9836 28.5953 20.9836 28.4572V25.5759C20.9836 24.9742 20.8645 24.6288 20.527 24.4216C20.3384 24.3035 20.0704 24.2341 19.723 24.2341C19.2764 24.2341 18.9389 24.3722 18.7506 24.6485C18.6315 24.8262 18.5719 25.0236 18.5719 25.4183V28.4769C18.5719 28.5855 18.5124 28.6249 18.3933 28.6249H18.0856C17.9665 28.6249 17.9268 28.5855 17.9268 28.4769V23.8985C17.9268 23.8298 17.9565 23.7903 18.026 23.7903H18.3238C18.4032 23.7903 18.433 23.8199 18.4429 23.8985L18.4925 24.2936H18.5124C18.6017 24.1453 18.7506 24.0173 18.919 23.9183C19.1771 23.7706 19.5146 23.7012 19.8521 23.7012C20.5962 23.7012 21.1322 23.9183 21.3902 24.3624C21.5689 24.6683 21.6285 25.0926 21.6285 25.6351V28.4572C21.6285 28.5953 21.5491 28.6249 21.4399 28.6249Z" fill="#132063"/>
<path id="Fill-15" fill-rule="evenodd" clip-rule="evenodd" d="M23.2957 26.0101H25.4295C25.5287 26.0101 25.5684 26.0002 25.5684 25.8621V25.4874C25.5684 25.0137 25.5089 24.7768 25.3401 24.5696C25.1714 24.3624 24.9034 24.2538 24.5163 24.2538C23.6729 24.2538 23.3057 24.6288 23.2957 26.0101ZM26.2232 26.1979C26.2232 26.4739 26.1339 26.5726 25.856 26.5726H23.2957C23.3354 27.7565 23.663 28.1611 24.5957 28.1611C24.9729 28.1611 25.36 28.0924 25.6875 27.9638C25.8166 27.9144 25.8957 27.9341 25.9258 28.0328L25.9949 28.2598C26.0247 28.3585 26.0346 28.4276 25.7766 28.5263C25.4295 28.6545 25.0424 28.7138 24.5957 28.7138C23.127 28.7138 22.6406 27.9934 22.6406 26.4048V26.0101C22.6406 24.461 23.1171 23.7012 24.5064 23.7012C25.0821 23.7012 25.5089 23.8396 25.7865 24.1058C26.0843 24.392 26.2232 24.767 26.2232 25.3884V26.1979Z" fill="#132063"/>
<path id="Fill-17" fill-rule="evenodd" clip-rule="evenodd" d="M27.1758 28.4769C27.0766 28.4374 27.0369 28.398 27.0567 28.3088L27.1361 28.023C27.1659 27.9144 27.2255 27.8848 27.3247 27.9243C27.7118 28.0723 28.1085 28.1611 28.5254 28.1611C29.0019 28.1611 29.2103 28.092 29.3691 27.9638C29.5279 27.8355 29.6173 27.6282 29.6173 27.3322V27.273C29.6173 26.9279 29.5577 26.7404 29.3493 26.6121C29.2004 26.5233 28.982 26.4739 28.6545 26.4048L28.3765 26.3555C28.0493 26.2963 27.7912 26.2173 27.6026 26.1088C27.2354 25.9015 27.0964 25.5466 27.0964 25.0828V24.9838C27.0964 24.1058 27.6423 23.7012 28.6842 23.7012C29.1111 23.7012 29.4783 23.7505 29.7956 23.8393C29.9147 23.8692 29.9644 23.9281 29.9445 24.017L29.8853 24.2735C29.8555 24.392 29.7956 24.4413 29.6567 24.4018C29.3691 24.3229 28.9919 24.2538 28.6743 24.2538C28.2475 24.2538 28.0195 24.3328 27.8905 24.4512C27.7813 24.5499 27.692 24.7371 27.692 24.964V25.0334C27.692 25.2404 27.7317 25.3982 27.8505 25.517C27.9795 25.645 28.1585 25.7239 28.6247 25.8127L28.8828 25.8621C29.3691 25.9608 29.7658 26.089 29.9644 26.3358C30.1136 26.5331 30.2125 26.8193 30.2125 27.2042V27.3026C30.2125 27.648 30.1136 28.0032 29.9346 28.2203C29.6666 28.5556 29.2004 28.7138 28.5254 28.7138C28.0195 28.7138 27.4835 28.6052 27.1758 28.4769Z" fill="#132063"/>
<path id="Fill-19" fill-rule="evenodd" clip-rule="evenodd" d="M31.087 28.4769C30.9877 28.4374 30.948 28.398 30.9679 28.3088L31.0476 28.023C31.077 27.9144 31.1366 27.8848 31.2359 27.9243C31.623 28.0723 32.02 28.1611 32.4369 28.1611C32.9133 28.1611 33.1214 28.092 33.2803 27.9638C33.4391 27.8355 33.5284 27.6282 33.5284 27.3322V27.273C33.5284 26.9279 33.4688 26.7404 33.2604 26.6121C33.1115 26.5233 32.8932 26.4739 32.5656 26.4048L32.288 26.3555C31.9604 26.2963 31.7024 26.2173 31.5138 26.1088C31.1465 25.9015 31.0079 25.5466 31.0079 25.0828V24.9838C31.0079 24.1058 31.5535 23.7012 32.5954 23.7012C33.0222 23.7012 33.3894 23.7505 33.7071 23.8393C33.8259 23.8692 33.8758 23.9281 33.856 24.017L33.7964 24.2735C33.7666 24.392 33.7071 24.4413 33.5681 24.4018C33.2803 24.3229 32.9031 24.2538 32.5855 24.2538C32.1586 24.2538 31.9307 24.3328 31.8016 24.4512C31.6924 24.5499 31.6031 24.7371 31.6031 24.964V25.0334C31.6031 25.2404 31.6428 25.3982 31.7619 25.517C31.891 25.645 32.0696 25.7239 32.5361 25.8127L32.7939 25.8621C33.2803 25.9608 33.6773 26.089 33.8758 26.3358C34.0247 26.5331 34.124 26.8193 34.124 27.2042V27.3026C34.124 27.648 34.0247 28.0032 33.846 28.2203C33.578 28.5556 33.1115 28.7138 32.4369 28.7138C31.9307 28.7138 31.3947 28.6052 31.087 28.4769Z" fill="#132063"/>
<path id="Fill-21" fill-rule="evenodd" clip-rule="evenodd" d="M37.2214 28.4294C37.1222 28.39 37.1023 28.3505 37.1222 28.2617L37.2016 27.936C37.2214 27.8475 37.2906 27.8077 37.41 27.8574C37.7673 28.015 38.3129 28.163 38.8489 28.163C39.7916 28.163 40.2482 27.7189 40.2482 26.9593V26.8505C40.2482 26.1402 40.0298 25.8837 39.1963 25.6863L38.5313 25.5287C37.5787 25.3017 37.1222 24.8379 37.1222 23.93V23.782C37.1222 22.7165 37.8666 22.1543 39.0276 22.1543C39.5931 22.1543 40.0596 22.2231 40.4467 22.3415C40.5856 22.381 40.6058 22.4402 40.5757 22.5586L40.5062 22.7954C40.4765 22.904 40.3974 22.9237 40.268 22.8843C39.8313 22.756 39.5239 22.7066 39.0474 22.7066C38.2338 22.7066 37.817 23.0816 37.817 23.7919V23.8908C37.817 24.6011 38.1941 24.7984 38.8589 24.9563L39.4842 25.1044C40.5757 25.3609 40.943 25.785 40.943 26.7521V26.91C40.943 28.1235 40.1988 28.7156 38.8688 28.7156C38.214 28.7156 37.6777 28.6071 37.2214 28.4294Z" fill="#132063"/>
<path id="Fill-23" fill-rule="evenodd" clip-rule="evenodd" d="M42.3631 26.2963C42.3631 26.7009 42.3929 27.1351 42.4624 27.3818C42.6311 27.9638 43.0281 28.1611 43.6135 28.1611C44.209 28.1611 44.6057 27.9638 44.7745 27.3818C44.8439 27.1351 44.874 26.7009 44.874 26.2963V26.1088C44.874 25.7042 44.8439 25.2703 44.7745 25.0236C44.6057 24.4413 44.209 24.2538 43.6135 24.2538C43.0281 24.2538 42.6311 24.4413 42.4624 25.0236C42.3929 25.2703 42.3631 25.7042 42.3631 26.1088V26.2963ZM45.5288 26.4048C45.5288 27.2828 45.3802 27.8851 45.0127 28.2499C44.6854 28.5657 44.2189 28.7138 43.6135 28.7138C43.0182 28.7138 42.5517 28.5657 42.2242 28.2499C41.8569 27.8851 41.708 27.2828 41.708 26.4048V26.0101C41.708 25.1321 41.8569 24.5203 42.2242 24.1551C42.5517 23.8396 43.048 23.7012 43.6135 23.7012C44.1991 23.7012 44.6854 23.8396 45.0127 24.1551C45.3802 24.5203 45.5288 25.1321 45.5288 26.0101V26.4048Z" fill="#132063"/>
<path id="Fill-25" fill-rule="evenodd" clip-rule="evenodd" d="M47.2663 27.3365C47.2663 27.6523 47.2663 27.8497 47.3553 27.9582C47.4152 28.0372 47.524 28.0668 47.7126 28.0668H47.9806C48.0501 28.0668 48.1 28.0668 48.1 28.1753V28.5109C48.1 28.5796 48.07 28.629 48.0005 28.629H47.6236C47.2663 28.629 47.0181 28.5599 46.8593 28.402C46.6906 28.2247 46.6211 27.9286 46.6211 27.4944V22.0578C46.6211 21.9788 46.6707 21.9492 46.7402 21.9492H47.1472C47.2166 21.9492 47.2663 21.9788 47.2663 22.0578V27.3365Z" fill="#132063"/>
<path id="Fill-27" fill-rule="evenodd" clip-rule="evenodd" d="M52.447 23.7891C52.5261 23.7891 52.5562 23.8384 52.5562 23.9174V27.2326C52.5562 27.7161 52.4073 28.1105 52.1195 28.3573C51.8316 28.604 51.4545 28.7128 50.7699 28.7128C50.1148 28.7128 49.7081 28.5941 49.42 28.3573C49.1123 28.1007 48.9736 27.726 48.9736 27.2326V23.947C48.9736 23.8581 49.0332 23.7891 49.1123 23.7891H49.4799C49.5788 23.7891 49.6185 23.8581 49.6185 23.9272V27.1536C49.6185 27.5483 49.688 27.7556 49.8766 27.923C50.0751 28.1007 50.3431 28.1599 50.7699 28.1599C51.2162 28.1599 51.4743 28.0812 51.6828 27.8839C51.8515 27.726 51.9111 27.5483 51.9111 27.1536V23.9174C51.9111 23.8384 51.9607 23.7891 52.0302 23.7891H52.447Z" fill="#132063"/>
<path id="Fill-30" fill-rule="evenodd" clip-rule="evenodd" d="M55.4151 28.6288C54.8993 28.6288 54.5318 28.5005 54.3035 28.234C54.0851 27.9774 53.9762 27.6027 53.9762 27.0994V24.3563H53.3707C53.3013 24.3563 53.2715 24.3366 53.2715 24.2481V24.0507C53.2715 23.9616 53.3013 23.932 53.3707 23.9221L53.9762 23.7941V22.679C53.9762 22.6102 54.0258 22.5605 54.0953 22.5605H54.5119C54.5814 22.5605 54.6214 22.6102 54.6214 22.679V23.7941H55.7824C55.8519 23.7941 55.8817 23.8237 55.8817 23.8928V24.2579C55.8817 24.3168 55.8519 24.3563 55.7824 24.3563H54.6214V27.0205C54.6214 27.3758 54.6512 27.6521 54.7998 27.8297C54.9288 27.9972 55.1571 28.0764 55.5243 28.0764H55.8817C55.9412 28.0764 56.0005 28.0764 56.0005 28.1847V28.5202C56.0005 28.5893 55.971 28.6288 55.8817 28.6288H55.4151Z" fill="#132063"/>
<path id="Fill-32" fill-rule="evenodd" clip-rule="evenodd" d="M57.6474 28.5472C57.6474 28.5966 57.6176 28.6262 57.5584 28.6262H57.0825C57.0227 28.6262 57.0029 28.6065 57.0029 28.5472V23.8998C57.0029 23.831 57.0326 23.7915 57.1222 23.7915H57.5284C57.6077 23.7915 57.6474 23.831 57.6474 23.8998V28.5472ZM57.7862 22.5484C57.7862 22.8738 57.6077 23.0221 57.3502 23.0221H57.3106C56.9831 23.0221 56.8545 22.8738 56.8545 22.5484V22.4889C56.8545 22.1537 57.0525 22.0254 57.3106 22.0254H57.3502C57.6077 22.0254 57.7862 22.1537 57.7862 22.4889V22.5484Z" fill="#132063"/>
<path id="Fill-34" fill-rule="evenodd" clip-rule="evenodd" d="M59.493 26.2963C59.493 26.7009 59.5228 27.1351 59.5923 27.3818C59.761 27.9638 60.158 28.1611 60.7433 28.1611C61.3389 28.1611 61.7356 27.9638 61.9043 27.3818C61.9738 27.1351 62.0039 26.7009 62.0039 26.2963V26.1088C62.0039 25.7042 61.9738 25.2703 61.9043 25.0236C61.7356 24.4413 61.3389 24.2538 60.7433 24.2538C60.158 24.2538 59.761 24.4413 59.5923 25.0236C59.5228 25.2703 59.493 25.7042 59.493 26.1088V26.2963ZM62.6587 26.4048C62.6587 27.2828 62.5101 27.8851 62.1426 28.2499C61.8153 28.5657 61.3488 28.7138 60.7433 28.7138C60.1481 28.7138 59.6816 28.5657 59.354 28.2499C58.9868 27.8851 58.8379 27.2828 58.8379 26.4048V26.0101C58.8379 25.1321 58.9868 24.5203 59.354 24.1551C59.6816 23.8396 60.1779 23.7012 60.7433 23.7012C61.329 23.7012 61.8153 23.8396 62.1426 24.1551C62.5101 24.5203 62.6587 25.1321 62.6587 26.0101V26.4048Z" fill="#132063"/>
<path id="Fill-36" fill-rule="evenodd" clip-rule="evenodd" d="M67.2348 28.6249H66.9569C66.7981 28.6249 66.7782 28.5953 66.7782 28.4572V25.5759C66.7782 24.9742 66.6594 24.6288 66.3216 24.4216C66.133 24.3035 65.8653 24.2341 65.5179 24.2341C65.0713 24.2341 64.7338 24.3722 64.5455 24.6485C64.4261 24.8262 64.3669 25.0236 64.3669 25.4183V28.4769C64.3669 28.5855 64.3073 28.6249 64.1882 28.6249H63.8805C63.7614 28.6249 63.7217 28.5855 63.7217 28.4769V23.8985C63.7217 23.8298 63.7515 23.7903 63.8209 23.7903H64.1187C64.1981 23.7903 64.2276 23.8199 64.2375 23.8985L64.2874 24.2936H64.3073C64.3966 24.1453 64.5455 24.0173 64.714 23.9183C64.972 23.7706 65.3095 23.7012 65.647 23.7012C66.3911 23.7012 66.9274 23.9183 67.1852 24.3624C67.3638 24.6683 67.4234 25.0926 67.4234 25.6351V28.4572C67.4234 28.5953 67.344 28.6249 67.2348 28.6249Z" fill="#132063"/>
<path id="Fill-38" fill-rule="evenodd" clip-rule="evenodd" d="M68.5362 28.4769C68.4369 28.4374 68.3972 28.398 68.4171 28.3088L68.4968 28.023C68.5263 27.9144 68.5858 27.8848 68.6851 27.9243C69.0722 28.0723 69.4692 28.1611 69.8861 28.1611C70.3622 28.1611 70.5707 28.092 70.7295 27.9638C70.8883 27.8355 70.9776 27.6282 70.9776 27.3322V27.273C70.9776 26.9279 70.9181 26.7404 70.7096 26.6121C70.5607 26.5233 70.3424 26.4739 70.0148 26.4048L69.7372 26.3555C69.4097 26.2963 69.1516 26.2173 68.963 26.1088C68.5957 25.9015 68.4571 25.5466 68.4571 25.0828V24.9838C68.4571 24.1058 69.0027 23.7012 70.0446 23.7012C70.4714 23.7012 70.8387 23.7505 71.1563 23.8393C71.2751 23.8692 71.325 23.9281 71.3052 24.017L71.2456 24.2735C71.2158 24.392 71.1563 24.4413 71.0173 24.4018C70.7295 24.3229 70.3523 24.2538 70.0347 24.2538C69.6079 24.2538 69.3799 24.3328 69.2508 24.4512C69.1417 24.5499 69.0523 24.7371 69.0523 24.964V25.0334C69.0523 25.2404 69.092 25.3982 69.2111 25.517C69.3402 25.645 69.5188 25.7239 69.9854 25.8127L70.2431 25.8621C70.7295 25.9608 71.1265 26.089 71.325 26.3358C71.4739 26.5331 71.5732 26.8193 71.5732 27.2042V27.3026C71.5732 27.648 71.4739 28.0032 71.2953 28.2203C71.0273 28.5556 70.5607 28.7138 69.8861 28.7138C69.3799 28.7138 68.8439 28.6052 68.5362 28.4769Z" fill="#132063"/>
</g>
</g>
</g>
</g>
<defs>
<clipPath id="clip0_375_45128">
<rect width="87.9545" height="30" fill="white" transform="translate(0.951172)"/>
</clipPath>
</defs>
</svg>
