<svg width="65" height="64" viewBox="0 0 65 64" fill="none" xmlns="http://www.w3.org/2000/svg">
<path d="M58.1635 45.6357L40.7136 55.2347L23.2636 45.6357L18.8652 50.0344L40.7136 62.0523L62.5592 50.0344L58.1635 45.6357Z" fill="#FFEDD4"/>
<path d="M14.7751 14.2741L13.4116 26.5456L2.50391 2.00293L14.7751 14.2741Z" fill="#FFEDD4"/>
<path d="M32.5 32.0003V27.2145L40.6808 22.4561L48.8619 27.2145V34.0318L40.6808 37.4542V42.9081" stroke="#222222" stroke-width="1.5" stroke-linecap="round" stroke-linejoin="round"/>
<path d="M14.7751 14.2741L13.4116 26.5456L2.50391 2.00293L27.0466 12.9107L14.7751 14.2741Z" stroke="#222222" stroke-width="1.5" stroke-linecap="round" stroke-linejoin="round"/>
<path d="M40.6806 48.3623L39.3171 49.7258L40.6806 51.0892" stroke="#222222" stroke-width="1.5" stroke-linecap="round" stroke-linejoin="round"/>
<path d="M40.6804 48.3623L42.0439 49.7258L40.6804 51.0892" stroke="#222222" stroke-width="1.5" stroke-linecap="round" stroke-linejoin="round"/>
<path d="M40.6808 12.9111L18.8652 25.1826V49.7252L40.6808 61.9964L62.4965 49.7252V25.1826L40.6808 12.9111Z" stroke="#222222" stroke-width="1.5" stroke-linecap="round" stroke-linejoin="round"/>
</svg>
