<svg width="32" height="33" viewBox="0 0 32 33" fill="none" xmlns="http://www.w3.org/2000/svg">
<g id="Frame">
<path id="Vector" opacity="0.2" d="M12.0319 26.4728L6.75437 21.1953L4.45437 27.5241C4.3902 27.6985 4.37733 27.8878 4.41726 28.0693C4.4572 28.2509 4.54828 28.4172 4.67974 28.5487C4.81119 28.6802 4.97754 28.7712 5.15911 28.8112C5.34068 28.8511 5.52989 28.8382 5.70437 28.7741L12.0319 26.4728Z" fill="#FF7110"/>
<path id="Vector_2" opacity="0.2" d="M9.15625 14.5941L18.6338 24.0716L23.7588 22.2091C23.9129 22.1533 24.0505 22.0595 24.1588 21.9363C24.267 21.8131 24.3424 21.6646 24.3779 21.5045C24.4135 21.3444 24.408 21.178 24.362 21.0206C24.3161 20.8632 24.2311 20.7199 24.115 20.6041L12.6238 9.11912C12.5079 9.00332 12.3648 8.91861 12.2075 8.87282C12.0503 8.82702 11.884 8.82164 11.7241 8.85715C11.5642 8.89267 11.4159 8.96794 11.2928 9.076C11.1697 9.18406 11.0759 9.32142 11.02 9.47537L9.15625 14.5941Z" fill="#FF7110"/>
<path id="Vector_3" d="M4.4556 27.5238L11.0193 9.47629C11.0752 9.32211 11.169 9.18451 11.2922 9.07627C11.4154 8.96803 11.5639 8.89265 11.724 8.85712C11.884 8.82159 12.0505 8.82706 12.2079 8.87302C12.3653 8.91898 12.5085 9.00395 12.6243 9.12004L24.1093 20.605C24.2251 20.7209 24.3098 20.8642 24.3555 21.0215C24.4012 21.1788 24.4065 21.3451 24.3708 21.505C24.3352 21.6649 24.2598 21.8133 24.1516 21.9363C24.0434 22.0593 23.9059 22.153 23.7518 22.2088L5.70435 28.7725C5.53006 28.8362 5.34121 28.8488 5.16003 28.8087C4.97886 28.7686 4.81289 28.6777 4.68169 28.5465C4.55048 28.4152 4.4595 28.2493 4.41944 28.0681C4.37939 27.8869 4.39193 27.6981 4.4556 27.5238Z" stroke="#FF7110" stroke-width="1.75" stroke-linecap="round" stroke-linejoin="round"/>
<path id="Vector_4" d="M20.3945 10.834C20.3945 10.834 20.3945 7.83398 23.3945 7.83398C26.3945 7.83398 26.3945 4.83398 26.3945 4.83398" stroke="#FF7110" stroke-width="1.75" stroke-linecap="round" stroke-linejoin="round"/>
<path id="Vector_5" d="M17.3945 3.83398V6.83398" stroke="#FF7110" stroke-width="1.75" stroke-linecap="round" stroke-linejoin="round"/>
<path id="Vector_6" d="M26.3945 15.834L28.3945 17.834" stroke="#FF7110" stroke-width="1.75" stroke-linecap="round" stroke-linejoin="round"/>
<path id="Vector_7" d="M26.3945 11.834L29.3945 10.834" stroke="#FF7110" stroke-width="1.75" stroke-linecap="round" stroke-linejoin="round"/>
<path id="Vector_8" d="M9.15625 14.5938L18.6338 24.0713" stroke="#FF7110" stroke-width="1.75" stroke-linecap="round" stroke-linejoin="round"/>
<path id="Vector_9" d="M12.0334 26.4728L6.75586 21.1953" stroke="#FF7110" stroke-width="1.75" stroke-linecap="round" stroke-linejoin="round"/>
</g>
</svg>
