<svg width="80" height="80" viewBox="0 0 80 80" fill="none" xmlns="http://www.w3.org/2000/svg">
<g id="Sketch-annotation-element-stroke-line-arrow-spiral-down-5">
<path id="Vector" d="M13.1514 55.6573C14.523 58.3616 16.4489 61.9625 18.2398 64.3659M18.2398 64.3659C18.446 64.6428 19.9744 62.5495 20.0367 62.4471C21.4055 60.201 22.4384 57.8448 23.4396 55.4208M18.2398 64.3659C14.1931 48.3925 20.9768 33.1761 31.8599 28.7528C32.9385 28.3144 34.113 27.8384 35.3247 27.4689M35.3247 27.4689C37.2545 26.8806 39.2788 26.5625 41.1613 27.0972C42.8986 27.5907 44.9539 28.9655 45.3978 30.8022C46.2268 34.2333 42.3121 36.801 39.193 35.4425C36.452 34.2487 34.482 30.304 35.3247 27.4689ZM35.3247 27.4689C35.3425 27.4091 35.3615 27.3498 35.3818 27.291C40.281 13.1041 57.9238 13.4822 67.2147 21.515" stroke="#1195D6" stroke-width="2.5" stroke-miterlimit="1.5" stroke-linecap="round" stroke-linejoin="round"/>
</g>
</svg>
