<svg width="66" height="66" viewBox="0 0 66 66" fill="none" xmlns="http://www.w3.org/2000/svg">
<g id="Business-Idea-Light-Bulb--Streamline-Cyber-Duotone">
<path id="Vector" d="M33 12.7871V50.5171H24.915V55.9071H41.085V50.5171H43.78L51.865 41.6236V24.9146L33 12.7871Z" fill="#FFEDD4"/>
<path id="Vector_2" d="M35.6951 50.5173V31.6523H45.1276L43.7801 39.7373H22.2201L20.8726 31.6523H30.3051V50.5173" stroke="#222222" stroke-width="1.5" stroke-miterlimit="10" stroke-linecap="round" stroke-linejoin="round"/>
<path id="Vector_3" d="M33 2.00781V7.3978" stroke="#222222" stroke-width="1.5" stroke-miterlimit="10" stroke-linecap="round" stroke-linejoin="round"/>
<path id="Vector_4" d="M62.6449 31.6523H57.2549" stroke="#222222" stroke-width="1.5" stroke-miterlimit="10" stroke-linecap="round" stroke-linejoin="round"/>
<path id="Vector_5" d="M58.0634 9.55371L53.2124 14.1352" stroke="#222222" stroke-width="1.5" stroke-miterlimit="10" stroke-linecap="round" stroke-linejoin="round"/>
<path id="Vector_6" d="M58.0634 55.3686L53.2124 50.5176" stroke="#222222" stroke-width="1.5" stroke-miterlimit="10" stroke-linecap="round" stroke-linejoin="round"/>
<path id="Vector_7" d="M3.35498 31.6523H8.74498" stroke="#222222" stroke-width="1.5" stroke-miterlimit="10" stroke-linecap="round" stroke-linejoin="round"/>
<path id="Vector_8" d="M8.20605 9.55371L12.7876 14.1352" stroke="#222222" stroke-width="1.5" stroke-miterlimit="10" stroke-linecap="round" stroke-linejoin="round"/>
<path id="Vector_9" d="M8.20605 55.3686L12.7876 50.5176" stroke="#222222" stroke-width="1.5" stroke-miterlimit="10" stroke-linecap="round" stroke-linejoin="round"/>
<path id="Vector_10" d="M33 63.9929V61.2979" stroke="#222222" stroke-width="1.5" stroke-miterlimit="10" stroke-linecap="round" stroke-linejoin="round"/>
<path id="Vector_11" d="M33 12.7871L51.865 24.9146V41.8931L43.78 50.5171H22.22L14.135 41.8931V24.9146L33 12.7871Z" stroke="#222222" stroke-width="1.5" stroke-miterlimit="10" stroke-linecap="round" stroke-linejoin="round"/>
<path id="Vector_12" d="M41.085 50.5176V55.9076H24.915V50.5176" stroke="#222222" stroke-width="1.5" stroke-miterlimit="10" stroke-linecap="round" stroke-linejoin="round"/>
<path id="Vector_13" d="M38.3901 55.9072V61.2972H27.6101V55.9072" stroke="#222222" stroke-width="1.5" stroke-miterlimit="10" stroke-linecap="round" stroke-linejoin="round"/>
</g>
</svg>
