<svg width="64" height="64" viewBox="0 0 64 64" fill="none" xmlns="http://www.w3.org/2000/svg">
<g id="Bubble-Chat-Double-Typing-Smiley-Face--Streamline-Cyber-Duotone" clip-path="url(#clip0_459_6535)">
<path id="Vector" d="M44.2712 59.6595L48.3616 61.9966V53.8158L61.9966 49.7254V35.8179L57.9062 34.1816V45.635L44.2712 49.7254V59.6595Z" fill="#FFEDD4"/>
<path id="Vector_2" d="M17.4988 35.4999L6.49976 31.5L6.49976 17L1.95846 12.9996L1.95956 33.9995L18.9983 40.4999L17.4988 35.4999Z" fill="#FFEDD4"/>
<path id="Vector_3" d="M51.0887 23.8196V12.6746L26.5461 2.00391L2.00342 12.6746V34.0155L18.365 40.4185V51.0891L23.8191 46.9987" stroke="#222222" stroke-width="1.5" stroke-linecap="round" stroke-linejoin="round"/>
<g id="Group 1000007183">
<path id="Vector_4" d="M19 18.0039V13.7187L26.3251 9.45801L33.6504 13.7187V19.8229L26.3251 22.8873V27.7707" stroke="#222222" stroke-width="1.5" stroke-linecap="round" stroke-linejoin="round"/>
<path id="Vector_5" d="M26.3224 31.6523L25.1016 32.8732L26.3224 34.094" stroke="#222222" stroke-width="1.5" stroke-linecap="round" stroke-linejoin="round"/>
<path id="Vector_6" d="M26.3242 31.6523L27.5451 32.8732L26.3242 34.094" stroke="#222222" stroke-width="1.5" stroke-linecap="round" stroke-linejoin="round"/>
</g>
<path id="Vector_7" d="M29.2729 35.8182L45.6346 29.2734L61.9964 35.8182V49.7257L48.3618 53.8161V61.9969L29.2729 51.0892V35.8182Z" stroke="#222222" stroke-width="1.5" stroke-linecap="round" stroke-linejoin="round"/>
<path id="Vector_8" d="M53.8156 41.5439L52.4521 42.9074L53.8156 44.2709" stroke="#222222" stroke-width="1.5" stroke-linecap="round" stroke-linejoin="round"/>
<path id="Vector_9" d="M53.8157 41.5439L55.1791 42.9074L53.8157 44.2709" stroke="#222222" stroke-width="1.5" stroke-linecap="round" stroke-linejoin="round"/>
<path id="Vector_10" d="M45.6347 41.5439L44.2712 42.9074L45.6347 44.2709" stroke="#222222" stroke-width="1.5" stroke-linecap="round" stroke-linejoin="round"/>
<path id="Vector_11" d="M45.6348 41.5439L46.9982 42.9074L45.6348 44.2709" stroke="#222222" stroke-width="1.5" stroke-linecap="round" stroke-linejoin="round"/>
<path id="Vector_12" d="M37.4538 41.5439L36.0903 42.9074L37.4538 44.2709" stroke="#222222" stroke-width="1.5" stroke-linecap="round" stroke-linejoin="round"/>
<path id="Vector_13" d="M37.4539 41.5439L38.8173 42.9074L37.4539 44.2709" stroke="#222222" stroke-width="1.5" stroke-linecap="round" stroke-linejoin="round"/>
</g>
<defs>
<clipPath id="clip0_459_6535">
<rect width="64" height="64" fill="white"/>
</clipPath>
</defs>
</svg>
