<svg width="70" height="70" viewBox="0 0 70 70" fill="none" xmlns="http://www.w3.org/2000/svg">
<g id="Business-Target--Streamline-Cyber-Duotone">
<path id="Vector" d="M34.0013 46.3333L43.3346 41L47.3346 43.6667L34.0013 51.6667L20.668 43.6667L24.668 41L34.0013 46.3333Z" fill="#FFEDD4"/>
<path id="Vector_2" d="M34 56.9997L52.6667 46.333L58 50.333L34 63.6663L10 50.333L15.3333 46.333L34 56.9997Z" fill="#FFEDD4"/>
<path id="Vector_3" d="M47.332 23.6667H57.9987L68.6654 13H57.9987L47.332 23.6667Z" fill="#FFEDD4"/>
<path id="Vector_4" d="M34 37.0003L47.3333 23.667" stroke="#222222" stroke-width="1.5" stroke-miterlimit="10" stroke-linecap="round" stroke-linejoin="round"/>
<path id="Vector_5" d="M58 34.333V50.333L34 63.6663L10 50.333V24.9997L34 10.333L40.6667 14.333" stroke="#222222" stroke-width="1.5" stroke-miterlimit="10" stroke-linecap="round" stroke-linejoin="round"/>
<path id="Vector_6" d="M47.3346 43.6663L34.0013 51.6663L20.668 43.6663V30.333L34.0013 22.333L47.3346 30.333V43.6663Z" stroke="#222222" stroke-width="1.5" stroke-miterlimit="10" stroke-linejoin="round"/>
<path id="Vector_7" d="M15.8654 53.5332L7.33203 63.6665" stroke="#222222" stroke-width="1.5" stroke-miterlimit="10" stroke-linecap="round" stroke-linejoin="round"/>
<path id="Vector_8" d="M52.1328 53.5332L60.6661 63.6665" stroke="#222222" stroke-width="1.5" stroke-miterlimit="10" stroke-linecap="round" stroke-linejoin="round"/>
<path id="Vector_9" d="M47.332 12.9997V23.6663H57.9987L68.6654 12.9997H57.9987V2.33301L47.332 12.9997Z" stroke="#222222" stroke-width="1.5" stroke-miterlimit="10" stroke-linecap="round" stroke-linejoin="round"/>
</g>
</svg>
